<?xml version="1.0" encoding="utf-8"?>
<!-- Generator: Adobe Illustrator 15.1.0, SVG Export Plug-In . SVG Version: 6.00 Build 0)  -->
<!DOCTYPE svg PUBLIC "-//W3C//DTD SVG 1.1//EN" "http://www.w3.org/Graphics/SVG/1.1/DTD/svg11.dtd">
<svg version="1.1" id="Layer_1" xmlns="http://www.w3.org/2000/svg" xmlns:xlink="http://www.w3.org/1999/xlink" x="0px" y="0px"
	 width="100px" height="100px" viewBox="240.5 158.75 100 100" enable-background="new 240.5 158.75 100 100" xml:space="preserve">
<path fill="#1B6BA1" d="M292.542,199.323c0.528-0.849,3.04-4.75,4.121-5.001c0.983-0.229,1.635,0.344,1.51,2.033l0.242,0.149
	c7.614-10.479,11.748-20.769,10.992-24.013c-0.39-1.672-1.632-2.109-3.112-1.35c-1.654,0.903-12.771,3.907-28.796,34.793
	c-5.005,9.664-7.478,21.744-5.737,29.215c1.625,6.981,5.93,10.334,13.008,8.686c12.387-2.884,30.263-24.045,37.68-34.479
	c1.462,4.945,0.209,6.688-2.702,11.098c-14.867,22.947-29.813,32.646-39.056,34.798c-10.914,2.541-20.358-2.411-22.991-13.718
	c-3.365-14.453,5.11-32.803,13.017-44.697c6.504-9.91,23.486-30.447,35.186-33.171c5.9-1.374,10.467,0.879,12.203,7.005
	c3.779,13.112-15.727,44.188-27.678,48.939c-2.761,1.057-5.873-0.291-6.604-3.438c-0.687-2.948,1.28-6.517,2.934-8.767
	L292.542,199.323z"/>
</svg>
