<?xml version="1.0" encoding="utf-8"?>
<!-- Generator: Adobe Illustrator 15.1.0, SVG Export Plug-In . SVG Version: 6.00 Build 0)  -->
<!DOCTYPE svg PUBLIC "-//W3C//DTD SVG 1.1//EN" "http://www.w3.org/Graphics/SVG/1.1/DTD/svg11.dtd">
<svg version="1.1" id="Layer_1" xmlns="http://www.w3.org/2000/svg" xmlns:xlink="http://www.w3.org/1999/xlink" x="0px" y="0px"
	 width="48.806px" height="49.146px" viewBox="0 0 48.806 49.146" enable-background="new 0 0 48.806 49.146" xml:space="preserve">
<path fill="#EE1D3A" d="M24.341,2.431c-12.242,0-22.167,9.925-22.167,22.167s9.925,22.167,22.167,22.167s22.167-9.925,22.167-22.167
	S36.583,2.431,24.341,2.431z M29.583,16.086c-1.654,0-2.995-1.342-2.995-2.995c0-1.655,1.341-2.996,2.995-2.996
	s2.996,1.341,2.996,2.996C32.579,14.744,31.237,16.086,29.583,16.086z"/>
<path fill="#FFFFFF" d="M40.776,22.486c0,0.087,0,0.172,0,0.259c-0.239,0.365-0.746,0.462-1.165,0.646
	c-0.901,2.424-1.499,5.154-2.98,6.997c-1.72,0.547-3.738-0.006-5.182,0.777c-0.467,0.182-0.5,0.795-1.166,0.777
	c-1.087-0.764-2.664-1.072-2.979-2.333c-0.072-0.288,0.159-0.896,0.13-1.424c-0.1-1.741-1.744-5.412-1.555-6.348
	c0.261-1.296,1.761-0.417,2.461-0.39c0.281,0.012,0.722-0.219,1.036-0.26c2.403-0.306,5.863-0.465,8.421-1.165
	C38.86,20.775,40.409,21.039,40.776,22.486z M29.766,23.781c-0.032,1.716,0.481,2.886,0.647,4.405
	c0.882-0.029,2.487-0.327,3.757-0.39c0.637-1.397,1.372-3.368,1.425-4.922C33.359,22.693,31.918,23.798,29.766,23.781z
	 M18.105,11.993c-0.752,4.3-3.521,6.582-5.7,9.456c2.318-0.147,3.423-2.186,5.182-2.461c0.015,0.935,0.215,1.686,0.13,2.721
	c-2.076,0.601-3.451,1.903-5.96,2.072c-0.342,0.306-0.716,0.58-1.166,0.777c0.562,0.99,1.723,1.854,2.852,1.813
	c1.116-0.038,1.933-1.381,2.979-1.425c-0.504,1.85-1.447,4.426-2.591,6.219c-0.81,1.271-1.989,1.819-2.851,2.851
	c1.86-0.816,4.409-1.885,5.83-3.628c0.397-0.488,0.358-1.355,1.166-1.426c-0.176,2.84,0.135,6.251-0.259,8.81
	c0.406,1.101,2.131,1.145,2.85,1.556c1.244-1.794,0.266-4.875,0.518-7.644c0.13-1.413,0.253-3.198,0.13-4.794
	c1.146,0.5,3.461,2.093,4.276,0.26c-0.459-1.7-2.808-1.511-4.276-2.203c-1.024-3.109,3.673-1.354,4.406-3.108
	c-0.353-1.756-3.734-1.786-4.795-1.296c0.629-1.473,0.261-3.407-1.684-3.628c1.024-0.791,1.949-1.679,2.85-2.591
	c-0.006-1.257-1.49-2.128-2.59-2.721c-0.173,0-0.346,0-0.519,0C18.772,11.883,18.563,12.062,18.105,11.993z"/>
</svg>
