<?xml version="1.0" encoding="utf-8"?>
<!-- Generator: Adobe Illustrator 18.1.1, SVG Export Plug-In . SVG Version: 6.00 Build 0)  -->
<svg version="1.1" id="Layer_1" xmlns="http://www.w3.org/2000/svg" xmlns:xlink="http://www.w3.org/1999/xlink" x="0px" y="0px"
	 width="34.9px" height="10.7px" viewBox="0 0 34.9 10.7" enable-background="new 0 0 34.9 10.7" xml:space="preserve">
<rect width="34.9" height="10.7"/>
<path fill="#FFFFFF" d="M24.8,2c-0.2,0-0.4,0.2-0.4,0.4v1.9c-0.3-0.2-0.8-0.4-1.2-0.4c-1.1,0-2.1,0.9-2.1,2.1S22.1,8,23.2,8
	c0.5,0,0.9-0.1,1.2-0.4v0c0,0.2,0.2,0.4,0.4,0.4c0.2,0,0.4-0.2,0.4-0.4V2.4C25.3,2.2,25.1,2,24.8,2z M23.2,7.1C22.6,7.1,22,6.6,22,6
	s0.5-1.2,1.2-1.2c0.6,0,1.2,0.5,1.2,1.2S23.8,7.1,23.2,7.1z M15.8,3.9c-1.1,0-2.1,0.9-2.1,2.1S14.6,8,15.8,8c1.1,0,2.1-0.9,2.1-2.1
	C17.8,4.8,16.9,3.9,15.8,3.9z M15.8,7.1c-0.6,0-1.2-0.5-1.2-1.2s0.5-1.2,1.2-1.2c0.6,0,1.2,0.5,1.2,1.2S16.4,7.1,15.8,7.1z
	 M13.6,7.4c0.1,0.2,0.1,0.5-0.1,0.6c-0.1,0.1-0.2,0.1-0.3,0.1c-0.1,0-0.3-0.1-0.4-0.2l-1.3-1.8L11,6.6v1c0,0.2-0.2,0.4-0.4,0.4
	c-0.2,0-0.4-0.2-0.4-0.4V2.4c0-0.2,0.2-0.4,0.4-0.4S11,2.2,11,2.4v3L12.7,4c0.2-0.2,0.5-0.1,0.6,0c0.2,0.2,0.1,0.5,0,0.6l-1,0.9
	L13.6,7.4z M21,4.1c0.2,0.2,0.1,0.5,0,0.6l-1.6,1.4v1.6c0,0.2-0.2,0.4-0.4,0.4s-0.4-0.2-0.4-0.4V4.4c0-0.2,0.2-0.4,0.4-0.4
	s0.4,0.2,0.4,0.4v0.5l1-0.8C20.6,3.9,20.8,3.9,21,4.1z"/>
<g>
	<path fill="#EE1D3A" d="M5.3,2.7C3.7,2.7,2.4,4,2.4,5.6s1.3,2.8,2.8,2.8s2.8-1.3,2.8-2.8S6.8,2.7,5.3,2.7z M5.9,4.5
		c-0.2,0-0.4-0.2-0.4-0.4c0-0.2,0.2-0.4,0.4-0.4c0.2,0,0.4,0.2,0.4,0.4C6.3,4.3,6.2,4.5,5.9,4.5z"/>
	<path fill="#FFFFFF" d="M7.4,5.3C7.4,5.3,7.4,5.3,7.4,5.3c0,0.1-0.1,0.1-0.1,0.1C7.1,5.7,7,6.1,6.8,6.3c-0.2,0.1-0.5,0-0.7,0.1
		C6.1,6.4,6.1,6.5,6,6.5C5.9,6.4,5.7,6.4,5.7,6.2c0,0,0-0.1,0-0.2c0-0.2-0.2-0.7-0.2-0.8c0-0.2,0.2-0.1,0.3,0c0,0,0.1,0,0.1,0
		C6.2,5.1,6.7,5.1,7,5C7.1,5.1,7.3,5.1,7.4,5.3z M6,5.5C6,5.7,6,5.8,6.1,6c0.1,0,0.3,0,0.5,0c0.1-0.2,0.2-0.4,0.2-0.6
		C6.4,5.3,6.2,5.5,6,5.5z M4.5,3.9C4.4,4.5,4,4.8,3.7,5.2c0.3,0,0.4-0.3,0.7-0.3c0,0.1,0,0.2,0,0.3C4.2,5.3,4,5.4,3.7,5.5
		c0,0-0.1,0.1-0.1,0.1c0.1,0.1,0.2,0.2,0.4,0.2c0.1,0,0.2-0.2,0.4-0.2C4.2,5.8,4.1,6.2,3.9,6.4C3.8,6.6,3.7,6.6,3.6,6.8
		c0.2-0.1,0.6-0.2,0.7-0.5c0.1-0.1,0-0.2,0.1-0.2c0,0.4,0,0.8,0,1.1c0.1,0.1,0.3,0.1,0.4,0.2c0.2-0.2,0-0.6,0.1-1c0-0.2,0-0.4,0-0.6
		c0.1,0.1,0.4,0.3,0.5,0C5.4,5.7,5.1,5.7,4.9,5.6C4.7,5.2,5.3,5.4,5.4,5.2C5.4,5,5,5,4.8,5c0.1-0.2,0-0.4-0.2-0.5
		C4.7,4.5,4.9,4.4,5,4.2C5,4.1,4.8,4,4.6,3.9C4.6,3.9,4.6,3.9,4.5,3.9C4.6,3.9,4.5,4,4.5,3.9z"/>
</g>
<g>
	<path fill="#EE1D3A" d="M29.9,2.6c-1.5,0-2.7,1.2-2.7,2.7S28.4,8,29.9,8c1.5,0,2.7-1.2,2.7-2.7S31.4,2.6,29.9,2.6z"/>
	<g>
		<path fill="#FFFFFF" d="M29.6,4.8h-0.8v0.4h0.8v0.4h-0.8v0.9h-0.5v-2h1.3V4.8z"/>
		<path fill="#FFFFFF" d="M30.8,6.4c-0.3,0-0.5-0.1-0.6-0.2C30.1,6.1,30,5.9,30,5.7V4.4h0.5v1.3c0,0.1,0,0.2,0.1,0.3
			c0.1,0.1,0.1,0.1,0.3,0.1c0.1,0,0.2,0,0.3-0.1c0.1-0.1,0.1-0.2,0.1-0.3V4.4h0.5v1.3c0,0.2-0.1,0.4-0.2,0.6
			C31.3,6.4,31.1,6.4,30.8,6.4z"/>
	</g>
</g>
</svg>
