<?xml version="1.0" encoding="utf-8"?>
<!-- Generator: Adobe Illustrator 15.1.0, SVG Export Plug-In . SVG Version: 6.00 Build 0)  -->
<!DOCTYPE svg PUBLIC "-//W3C//DTD SVG 1.1//EN" "http://www.w3.org/Graphics/SVG/1.1/DTD/svg11.dtd">
<svg version="1.1" id="Layer_1" xmlns="http://www.w3.org/2000/svg" xmlns:xlink="http://www.w3.org/1999/xlink" x="0px" y="0px"
	 width="500px" height="296.5px" viewBox="0 0 500 296.5" enable-background="new 0 0 500 296.5" xml:space="preserve">
<g>
	<path fill="#FFFFFF" d="M134.042,130.573c0.528-0.848,3.04-4.75,4.121-5.001c0.983-0.229,1.635,0.344,1.51,2.033l0.242,0.15
		c7.614-10.479,11.748-20.769,10.992-24.013c-0.389-1.672-1.631-2.109-3.112-1.349c-1.655,0.903-12.771,3.907-28.796,34.792
		c-5.005,9.665-7.478,21.745-5.738,29.216c1.625,6.981,5.93,10.333,13.008,8.685c12.387-2.884,30.263-24.045,37.68-34.479
		c1.462,4.946,0.209,6.688-2.702,11.098c-14.867,22.947-29.814,32.646-39.056,34.798c-10.913,2.541-20.358-2.411-22.991-13.718
		c-3.365-14.453,5.111-32.802,13.017-44.697c6.503-9.91,23.486-30.447,35.186-33.171c5.899-1.374,10.466,0.879,12.203,7.005
		c3.779,13.112-15.727,44.187-27.679,48.939c-2.76,1.057-5.873-0.291-6.604-3.438c-0.687-2.949,1.281-6.517,2.934-8.767
		L134.042,130.573z"/>
	<path fill="#FFFFFF" d="M377.75,92.484l-17.317,24.45l-0.242-0.151l9.515-25.017c0.895-2.385,2.611-7.034,2.015-9.59
		c-0.318-1.377-2.194-4.981-3.798-4.297c-1.799,0.729-6.513,8.978-14.463,20.676c-3.237,4.795-6.972,10.122-12.044,11.925
		c-0.383-2.087-0.251-4.191,0.54-6.138c2.65-3.31,11.378-16.123,10.508-19.859c-0.321-1.376-3.806-3.882-5.28-3.539
		c-2.387,0.646-13.315,13.265-13.926,24.251l-0.03-0.064c-2.664,2.797-9.855,12.867-13.198,13.646
		c-2.163,0.503-3.039-2.816-3.405-4.389c-1.465-6.292,1.766-13.781,3.819-19.65l6.411-17.869c1.002-2.824,2.717-7.473,2.03-10.422
		c-0.413-1.771-2.05-3.46-4.017-3.003c-7.177,1.671-11.09,24.037-13.029,30.396c-1.622-1.177-2.729-2.37-4.771-1.791
		c-7.43,2.196-22.192,14.103-23.053,24.927c-2.744,3.566-7.037,10.27-10.93,11.176c-1.475,0.343-3.322-0.47-3.689-2.043
		c-0.916-3.933,2.78-9.872,5.061-12.993c1.825-2.396,3.352-4.304,2.641-7.353c-0.607-1.725-1.662-3.136-3.572-4.661
		c-1.258-0.95-6.391,1.488-15.334,4.918c0.187-0.977,0.274-1.93,0.045-2.913c-0.205-0.885-1.174-1.49-2.157-1.261
		c-2.36,0.549-10.74,9.964-9.092,17.043c0.48,2.064,1.254,2.713,3.365,2.429c-0.396,0.979-0.822,1.941-1.276,2.885
		c-2.197,2.884-4.128,6.482-8.207,6.682c0.975-4.27,2.14-8.168,1.133-12.494c-0.687-2.95-1.757-4.877-4.89-4.977
		c0.944-0.841,1.986-1.707,1.643-3.181c-0.618-2.655-4.092-2.882-6.231-2.28c-5.929,1.691-12.39,5.993-16.691,11.556
		c-4.137,5.042-6.564,10.298-5.483,16.769c-2.797,3.04-7.713,8.484-10.556,9.146c-1.181,0.275-2.347-0.283-2.644-1.561
		c-0.229-0.984-0.593-1.21,3.786-10.003c0.86-1.65,3.785-6.892,3.35-8.76c-0.526-2.261-3.459-4.169-5.818-3.62
		c-5.407,1.259-19.638,21.156-23.563,26.111l-0.893-3.834c4.85-7.659,28.56-47.382,27.003-54.068
		c-0.458-1.966-3.273-2.037-4.846-1.67c-3.343,0.779-18.901,22.539-26.04,44.413c-2.136,6.405-3.593,11.719-2.013,18.503
		c0.526,2.261,2.803,9.814,6.244,9.013c3.146-0.732,5.635-12.298,19.77-27.715l0.242,0.15c-2.463,5.445-7.508,14.498-6.065,20.691
		c0.618,2.654,2.787,4.844,5.736,4.157c4.881-1.137,13.22-11.353,17.535-16.637c2.807,7.104,8.049,10.265,12.653,9.193
		c6.194-1.442,10.278-5.71,13.424-10.899c7.109-1.655,10.88-4.979,13.983-11.489c1.629-2.383,3.125-4.878,4.258-8.098l9.698-4.641
		l0.243,0.15c-2.835,5.634-6.732,12.036-5.177,18.721c0.87,3.737,4.319,6.976,8.448,6.014c4.841-1.127,12.035-11.382,15.681-17.442
		c1.582,3.986,5.808,10.469,9.642,9.577c4.424-1.03,11.348-12.696,14.103-16.446c0.179,2.549,0.38,5.196,0.953,7.653
		c0.731,3.146,3.123,6.737,6.858,5.867c6.578-1.532,13.611-12.307,17.381-18.861c2.016,7.13,7.65,10.131,10.436,9.689
		c1.202-0.176,7.144-7.156,13.626-15.816l0.242,0.15l-8,25.288c-0.49,1.461-1.647,4.943-1.281,6.517
		c0.39,1.671,2.396,6.283,4.46,5.802c1.573-0.366,3.434-4.842,4.165-6.152l22.016-39.433L377.75,92.484z M223.932,142.292
		c-2.458,0.572-4.532,0.122-5.196-2.729c-0.709-3.048,0.266-7.317,1.925-9.983c2.285-3.537,6.356-6.973,9.242-9.718
		c0.438,0.105-2.74,7.375-1.55,12.487c0.389,1.67,1.178,2.835,2.233,4.248C228.806,139.188,227.177,141.536,223.932,142.292z
		 M295.292,122.049c-1.127,0.055-1.802-0.617-1.91-1.525c-0.921-6.626,0.464-10.473,16.462-20.105
		C309.623,106.585,296.541,122.069,295.292,122.049z"/>
	<path fill="#FFFFFF" d="M336.769,161.17c-2.672,3.213-7.378,11.046-11.604,12.031c-1.475,0.343-3.322-0.469-3.689-2.042
		c-0.916-3.934,2.78-9.872,5.06-12.994c1.827-2.395,3.351-4.304,2.641-7.352c-0.607-1.724-1.663-3.137-3.572-4.661
		c-1.258-0.951-6.391,1.487-15.334,4.918c0.188-0.977,0.276-1.93,0.047-2.913c-0.206-0.886-1.176-1.489-2.158-1.261
		c-2.36,0.55-10.74,9.963-9.091,17.043c0.48,2.064,1.254,2.713,3.363,2.429c-0.396,0.979-0.82,1.941-1.277,2.886
		c-2.196,2.884-4.127,6.481-8.205,6.681c0.975-4.269,2.141-8.167,1.133-12.494c-0.688-2.949-1.757-4.876-4.891-4.976
		c0.944-0.842,1.986-1.707,1.644-3.182c-0.618-2.654-4.091-2.881-6.231-2.279c-5.929,1.69-12.39,5.993-16.69,11.556
		c-3.896,4.746-6.277,9.683-5.642,15.643c-7.787,8.85-10.556,12.381-13.58,13.085c-2.261,0.527-3.249-0.591-3.751-2.754
		c-1.373-5.898,2.354-15.266,4.689-20.369c10.977-1.831,10.914-5.651,13.359-16.067l-6.209,0.929
		c0.662-1.605,2.759-5.514,2.347-7.284c-0.366-1.574-2.304-1.434-3.581-1.137c-5.703,1.328-6.79,6.453-8.8,11.171
		c-10.428,2.842-10.849,4.599-14.143,14.486l-0.67,2.022c5.028-2,3.251-1.172,9.249-2.568c-2.195,7.042-6.435,13.313-11.281,19.21
		l0.296,0.528c-2.542,2.887-5.256,5.603-7.848,6.206c-1.574,0.366-3.208,0.021-3.597-1.65c-1.076-4.622,5.875-13.495,5.143-16.641
		c-0.503-2.162-1.739-3.015-3.79-3.368c0.816-0.5,3.144-2.079,2.869-3.259c-0.275-1.18-2.99-4.382-7.489-3.232
		c-9.476,2.467-26.834,15.823-30.378,27.264l-3.063,4.05c-1.426,1.888-4.951,6.336-7.31,6.885c-0.983,0.229-1.976-0.473-2.182-1.358
		c-1.58-6.784,8.773-17.071,7.88-20.906c-0.775-1.996-1.777-3.628-2.711-4.965c-0.911-1.239-1.615-1.594-2.008-1.502
		c-2.851,0.664-18.125,16.969-23.656,28.829c-0.279,0.583-0.958,1.674-1.646,1.834c-0.59,0.138-1.196-0.24-1.333-0.83
		c-0.549-2.359,9.526-15.174,8.634-19.008c-0.138-0.589,0.033-2.081-5.911-0.904c-1.672,0.389-2.534,0.694-3.56,2.073
		c-4.581,6.145-8.462,17.518-6.588,24.232c0.876,3.319,3.4,9.262,7.726,8.254c2.655-0.618,5.171-6.283,6.21-8.494
		c3.097-6.732,6.92-13.013,11.638-18.567l0.243,0.149c-2.093,5.257-5.891,12.98-4.518,18.879c0.778,3.342,3.28,6.078,7.017,5.208
		c5.443-1.267,10.963-9.886,15.116-16.521c1.93,4.752,8.452,9.27,11.038,8.668c2.261-0.526,7.362-7.104,8.888-9.012l7.351-9.381
		l0.242,0.15c-0.659,2.953-1.806,8.713-1.073,11.86c0.664,2.851,2.688,4.866,5.933,4.111c4.777-1.112,15.361-14.481,18.565-20.36
		c-0.528,3.015-0.82,6.658-0.126,9.641c0.916,3.933,3.893,6.039,7.728,5.146c7.644-1.78,15.129-12.8,19.845-19.764
		c2.758,7.438,8.129,10.762,12.836,9.667c6.193-1.442,10.278-5.709,13.424-10.899c7.107-1.655,10.879-4.978,13.98-11.486
		c1.631-2.384,3.127-4.88,4.26-8.1l9.697-4.642l0.243,0.149c-2.834,5.635-6.733,12.037-5.177,18.722
		c0.869,3.736,4.318,6.976,8.448,6.015c5.604-1.305,14.369-14.851,17.121-19.949L336.769,161.17z M194.94,205.492
		c-1.406,0.638-2.211-1.039-2.424-1.508c-1.122-4.818,0.333-11.479,22.061-24.104l0.242,0.15
		C199.931,204.226,196.815,204.642,194.94,205.492z M236.067,189.914l-0.261-0.552l0.117-0.149l0.243,0.151
		C236.132,189.541,236.101,189.73,236.067,189.914z M276.012,187.341c-2.457,0.572-4.531,0.122-5.195-2.729
		c-0.711-3.048,0.265-7.317,1.925-9.984c2.286-3.538,6.356-6.973,9.241-9.718c0.438,0.105-2.739,7.375-1.549,12.488
		c0.389,1.67,1.178,2.835,2.233,4.247C280.886,184.236,279.257,186.585,276.012,187.341z"/>
	<path fill="#FFFFFF" d="M80.719,225.257c0.283-0.649,0.604-1.218,0.904-1.83l0.967-1.696c0.648-1.123,1.335-2.163,2.034-3.179
		c1.967-0.821,3.864-1.792,5.8-2.679l11.56-5.446l11.56-5.445l5.78-2.723c1.236,0.126,2.473,0.253,3.75,0.464l1.916,0.319
		c0.657,0.146,1.297,0.254,1.969,0.433c-0.291,0.632-0.614,1.195-0.92,1.794l-0.974,1.68c-0.65,1.119-1.34,2.153-2.03,3.187
		l-5.78,2.723l-11.56,5.446l-11.56,5.445c-1.917,0.927-3.874,1.772-5.759,2.766c-1.229-0.108-2.468-0.24-3.746-0.456l-1.923-0.335
		C82.042,225.567,81.399,225.453,80.719,225.257z"/>
	<path fill="#FFFFFF" d="M384.693,82.522c0.139-0.572,0.313-1.062,0.47-1.596l0.53-1.461c0.356-0.965,0.75-1.853,1.156-2.704
		c1.348-0.501,2.634-1.138,3.952-1.7l7.872-3.48l7.871-3.48l3.936-1.74c1.847,0.631,3.678,1.224,5.695,2.242
		c-0.604,2.178-1.397,3.931-2.175,5.722l-3.937,1.74l-7.871,3.48l-7.87,3.48c-1.304,0.598-2.642,1.121-3.918,1.78
		c-0.903-0.271-1.824-0.579-2.778-0.964l-1.438-0.592C385.69,83.004,385.21,82.804,384.693,82.522z"/>
</g>
</svg>
