<?xml version="1.0" encoding="utf-8"?>
<!-- Generator: Adobe Illustrator 15.1.0, SVG Export Plug-In . SVG Version: 6.00 Build 0)  -->
<!DOCTYPE svg PUBLIC "-//W3C//DTD SVG 1.1//EN" "http://www.w3.org/Graphics/SVG/1.1/DTD/svg11.dtd">
<svg version="1.1" id="Layer_1" xmlns="http://www.w3.org/2000/svg" xmlns:xlink="http://www.w3.org/1999/xlink" x="0px" y="0px"
	 width="500px" height="500px" viewBox="0 0 500 500" enable-background="new 0 0 500 500" xml:space="preserve">
<g>
</g>
<g>
</g>
<g>
</g>
<g>
</g>
<g>
</g>
<path d="M277.958,96.086c-5.039,0-10.025,0.223-14.958,0.637V61c0-7.18-5.82-13-13-13H52c-7.18,0-13,5.82-13,13v104
	c0,7.18,5.82,13,13,13h76.881c-17.41,27.359-27.5,59.832-27.5,94.663c0,97.521,79.057,176.577,176.577,176.577
	s176.577-79.057,176.577-176.577S375.479,96.086,277.958,96.086z"/>
<g>
	<g>
		<g>
			<g>
				<path fill="#FFFFFF" d="M224.069,197.414h1.729l-1.171,5.527h6.734l1.152-5.527h1.71l-2.7,12.855h-1.711l1.242-5.888h-6.733
					l-1.242,5.888h-1.711L224.069,197.414z"/>
				<path fill="#FFFFFF" d="M239.748,200.745c2.484,0,3.871,1.368,3.871,3.853c0,3.043-1.891,5.888-5.149,5.888
					c-2.449,0-3.926-1.639-3.926-3.889C234.544,203.554,236.489,200.745,239.748,200.745z M238.632,209.135
					c2.232,0,3.457-2.574,3.457-4.411c0-1.458-0.774-2.629-2.449-2.629c-2.341,0-3.564,2.558-3.564,4.483
					C236.075,208.109,236.957,209.135,238.632,209.135z"/>
				<path fill="#FFFFFF" d="M253.482,210.27h-1.621l-0.468-7.238h-0.036l-3.331,7.238h-1.62l-1.099-9.309h1.62l0.576,7.4h0.036
					l3.35-7.4h1.729l0.45,7.4h0.035l3.529-7.4h1.656L253.482,210.27z"/>
			</g>
		</g>
	</g>
	<g>
		<g>
			<g>
				<path fill="#FFFFFF" d="M223.036,342.648h-1.783l-0.81-11.092h-0.036l-5.078,11.092h-1.836l-0.811-12.855h1.692l0.45,10.821
					h0.036l4.934-10.821h1.944l0.721,10.856h0.035l4.682-10.856h1.765L223.036,342.648z"/>
				<path fill="#FFFFFF" d="M230.539,329.793h1.53l-1.099,4.915l0.036,0.036c0.774-1.044,2.035-1.62,3.313-1.62
					c1.746,0,2.593,0.756,2.593,2.395c0,0.396-0.108,1.098-0.271,1.818l-1.134,5.312h-1.531l1.188-5.438
					c0.072-0.342,0.217-1.116,0.217-1.44c0-0.883-0.721-1.297-1.621-1.297c-0.846,0-1.729,0.469-2.305,1.081
					c-0.54,0.468-0.828,1.206-1.026,1.944l-1.08,5.149h-1.53L230.539,329.793z"/>
				<path fill="#FFFFFF" d="M239.683,338.453c-0.036,0.271-0.054,0.54-0.054,0.811c0,1.44,1.17,2.25,2.412,2.25
					c1.333,0,2.251-0.63,2.683-1.782h1.531c-0.486,2.053-2.179,3.133-4.214,3.133c-3.079,0-3.943-2.124-3.943-3.745
					c0-3.564,2.233-5.995,4.79-5.995c2.736,0,3.943,1.494,3.943,4.123c0,0.486-0.091,0.954-0.145,1.206H239.683z M245.3,337.103
					c0.108-1.314-0.485-2.629-2.179-2.629c-1.8,0-2.772,1.188-3.223,2.629H245.3z"/>
				<path fill="#FFFFFF" d="M249.438,333.34h1.44l-0.45,1.998h0.036c0.721-1.278,1.818-2.214,3.385-2.214c0.181,0,0.36-0.036,0.54,0
					l-0.359,1.638c-0.145-0.018-0.307-0.018-0.45-0.018c-0.379,0-0.559,0-0.919,0.09c-0.846,0.216-1.494,0.774-1.98,1.513
					c-0.414,0.594-0.63,1.477-0.774,2.179l-0.882,4.123h-1.53L249.438,333.34z"/>
				<path fill="#FFFFFF" d="M255.45,338.453c-0.036,0.271-0.054,0.54-0.054,0.811c0,1.44,1.17,2.25,2.412,2.25
					c1.333,0,2.251-0.63,2.683-1.782h1.531c-0.486,2.053-2.179,3.133-4.214,3.133c-3.079,0-3.943-2.124-3.943-3.745
					c0-3.564,2.233-5.995,4.79-5.995c2.736,0,3.943,1.494,3.943,4.123c0,0.486-0.091,0.954-0.145,1.206H255.45z M261.067,337.103
					c0.108-1.314-0.485-2.629-2.179-2.629c-1.8,0-2.772,1.188-3.223,2.629H261.067z"/>
			</g>
		</g>
	</g>
	<g>
		<g>
			<g>
				<path fill="#FFFFFF" d="M341.669,278.467h-1.783l-0.81-11.092h-0.036l-5.078,11.092h-1.836l-0.811-12.855h1.692l0.45,10.821
					h0.036l4.934-10.821h1.944l0.721,10.856h0.035l4.682-10.856h1.765L341.669,278.467z"/>
				<path fill="#FFFFFF" d="M349.172,265.611h1.53l-1.099,4.915l0.036,0.036c0.774-1.044,2.035-1.62,3.313-1.62
					c1.746,0,2.593,0.756,2.593,2.395c0,0.396-0.108,1.098-0.271,1.818l-1.134,5.312h-1.531l1.188-5.438
					c0.072-0.342,0.217-1.116,0.217-1.44c0-0.883-0.721-1.297-1.621-1.297c-0.846,0-1.729,0.469-2.305,1.081
					c-0.54,0.468-0.828,1.206-1.026,1.944l-1.08,5.149h-1.53L349.172,265.611z"/>
				<path fill="#FFFFFF" d="M357.505,271.967c0.307-2.07,2.053-3.024,4.033-3.024c1.801,0,3.403,0.485,3.403,2.376
					c0,0.522-0.18,1.188-0.288,1.692l-0.595,2.539c-0.071,0.378-0.252,0.9-0.252,1.333c0,0.432,0.198,0.576,0.45,0.576
					c0.145,0,0.343-0.072,0.486-0.127l-0.234,1.135c-0.233,0.126-0.666,0.216-0.936,0.216c-0.847,0-1.297-0.504-1.207-1.314
					l-0.036-0.036c-0.647,0.864-1.548,1.351-3.114,1.351c-1.549,0-2.845-0.72-2.845-2.629c0-2.7,2.646-2.881,4.699-3.061
					c1.62-0.144,2.341-0.234,2.341-1.477c0-1.008-1.063-1.225-1.873-1.225c-1.17,0-2.322,0.469-2.503,1.675H357.505z
					 M359.576,277.332c1.188,0,2.07-0.396,2.61-1.224c0.504-0.702,0.594-1.53,0.811-2.396h-0.036
					c-0.666,0.396-1.873,0.486-2.989,0.631c-1.099,0.162-2.07,0.504-2.07,1.692C357.901,276.9,358.711,277.332,359.576,277.332z"/>
				<path fill="#FFFFFF" d="M369.872,269.158h1.854l-0.288,1.351h-1.854l-1.152,5.474c-0.019,0.216-0.055,0.396-0.055,0.611
					c0,0.486,0.45,0.631,0.919,0.631c0.306,0,0.594-0.072,0.882-0.162l-0.27,1.404c-0.36,0.072-0.721,0.108-1.081,0.108
					c-1.134,0-2.088-0.324-2.088-1.513c0-0.271,0.035-0.486,0.09-0.774l1.224-5.779h-1.566l0.288-1.351h1.567l0.576-2.755h1.53
					L369.872,269.158z"/>
			</g>
		</g>
	</g>
</g>
<g>
	<path fill="#FFFFFF" d="M300.041,149.792l-23.053-33.259l-19.693,33.525c-57.952,10.449-101.917,61.139-101.917,122.104
		c0,68.526,55.554,124.08,124.08,124.08s124.08-55.554,124.08-124.08C403.538,210.646,358.771,159.599,300.041,149.792z
		 M330.861,200.245c2.778,0,4.371,1.587,4.371,4.353c0,3.097-1.979,6.388-5.649,6.388c-2.647,0-4.426-1.764-4.426-4.389
		C325.157,203.518,327.156,200.245,330.861,200.245z M320.127,196.914l-0.907,4.061c0.738-0.469,1.619-0.729,2.534-0.729
		c2.557,0,3.093,1.574,3.093,2.895c0,0.42-0.105,1.141-0.282,1.928l-1.218,5.702h-2.557l1.321-6.044
		c0.099-0.466,0.205-1.11,0.205-1.334c0-0.693-0.702-0.797-1.121-0.797c-0.65,0-1.412,0.362-1.94,0.924
		c-0.522,0.455-0.767,1.204-0.908,1.731l-1.156,5.52h-2.554l2.931-13.855H320.127z M302.288,196.914l0.387,9.283l4.232-9.283h2.733
		l0.619,9.326l4.021-9.326h2.874l-6.365,13.855h-2.568l-0.706-9.68l-4.432,9.68h-2.627l-0.873-13.855H302.288z M277.713,124.521
		l15.516,24.326c-4.521-0.499-9.114-0.765-13.771-0.765c-0.385,0-0.767,0.012-1.151,0.015l-0.594-0.033V124.521z M307.222,343.148
		l-0.706-9.68l-4.432,9.68h-2.627l-0.873-13.855h2.704l0.387,9.283l4.232-9.283h2.733l0.619,9.326l4.021-9.326h2.874l-6.365,13.855
		H307.222z M323.564,337.446l-1.218,5.702h-2.557l1.321-6.044c0.099-0.466,0.205-1.11,0.205-1.334c0-0.693-0.702-0.797-1.121-0.797
		c-0.65,0-1.412,0.362-1.94,0.924c-0.522,0.455-0.767,1.204-0.908,1.731l-1.156,5.52h-2.554l2.931-13.855h2.56l-0.907,4.061
		c0.738-0.469,1.619-0.729,2.534-0.729c2.557,0,3.093,1.574,3.093,2.895C323.847,335.938,323.741,336.659,323.564,337.446z
		 M328.475,343.364c-3.279,0-4.443-2.287-4.443-4.245c0-3.643,2.323-6.495,5.29-6.495c2.907,0,4.443,1.599,4.443,4.623
		c0,0.581-0.117,1.13-0.155,1.311l-0.085,0.396h-6.953c-0.006,0.104-0.009,0.207-0.009,0.311c0,1.202,0.991,1.75,1.912,1.75
		c1.107,0,1.853-0.49,2.215-1.458l0.121-0.324h2.51l-0.146,0.615C332.661,342.017,330.86,343.364,328.475,343.364z M343.238,337.446
		l-1.218,5.702h-2.557l1.321-6.044c0.099-0.466,0.205-1.11,0.205-1.334c0-0.693-0.702-0.797-1.121-0.797
		c-0.65,0-1.412,0.362-1.94,0.924c-0.522,0.455-0.767,1.204-0.908,1.731l-1.156,5.52h-2.553l2.174-10.309h2.494l-0.108,0.527
		c0.743-0.478,1.632-0.743,2.557-0.743c2.557,0,3.093,1.574,3.093,2.895C343.521,335.938,343.415,336.659,343.238,337.446z
		 M279.458,272.163v114.644c-42.161,0-78.198-20.81-99.281-57.331L279.458,272.163l-99.281-57.322
		c21.083-36.517,57.12-57.316,99.281-57.316V272.163l99.281-57.322c21.083,36.521,21.083,78.123,0,114.635L279.458,272.163z
		 M213.095,266.442c2.557,0,3.093,1.574,3.093,2.895c0,0.42-0.105,1.141-0.282,1.928l-1.218,5.702h-2.557l1.321-6.044
		c0.099-0.466,0.205-1.11,0.205-1.334c0-0.693-0.702-0.797-1.121-0.797c-0.65,0-1.412,0.362-1.94,0.924
		c-0.522,0.455-0.767,1.204-0.908,1.731l-1.156,5.52h-2.554l2.931-13.855h2.56l-0.907,4.061
		C211.299,266.703,212.18,266.442,213.095,266.442z M216.853,266.658h2.667l0.929,6.365l3.36-6.365h2.834l-6.58,11.639
		c-0.726,1.159-1.534,2.451-3.442,2.451c-0.44,0-0.934-0.11-1.287-0.287l-0.347-0.175l0.504-2.311l0.601,0.37
		c0.153,0.095,0.442,0.178,0.619,0.178c0.405,0,0.67-0.2,1.013-0.767l0.839-1.388L216.853,266.658z M202.131,276.967h-2.568
		l-0.706-9.68l-4.432,9.68h-2.627l-0.873-13.855h2.704l0.387,9.283l4.232-9.283h2.733l0.619,9.326l4.021-9.326h2.874
		L202.131,276.967z"/>
	<path fill="#FFFFFF" d="M329.745,208.635c1.904,0,2.957-2.313,2.957-3.911c0-0.64-0.189-2.129-1.949-2.129
		c-1.999,0-3.064,2.313-3.064,3.983C327.688,207.904,328.419,208.635,329.745,208.635z"/>
	<path fill="#FFFFFF" d="M330.796,335.44c-0.285-0.31-0.703-0.467-1.241-0.467c-1.14,0-1.977,0.547-2.493,1.629h4.177
		C331.205,336.127,331.051,335.717,330.796,335.44z"/>
</g>
<g>
	<g>
		<path fill="#FFFFFF" d="M371.221,167.008l-1.629-1.291l5.146-11.997l-0.033-0.027l-10.542,7.72l-1.628-1.292l6.304-14.134
			l1.596,1.266l-5.446,11.599l0.033,0.025l10.382-7.684l1.693,1.343l-5.148,11.834l0.032,0.025l10.135-7.88l1.563,1.239
			L371.221,167.008z"/>
		<path fill="#FFFFFF" d="M385.661,159.874l1.268,1.256l-4.035,4.074l0.03,0.028c1.334-0.51,2.808,0.182,3.733,1.097
			c2.029,2.01,1.503,3.795-0.138,5.451l-5.025,5.073l-1.268-1.256l5.172-5.224c0.932-0.939,0.94-2.144-0.029-3.104
			c-1.536-1.522-3.303-1.231-4.678,0.155l-4.315,4.359l-1.268-1.257L385.661,159.874z"/>
		<path fill="#FFFFFF" d="M391.777,183.403c-2.13,1.193-4.239,0.735-5.824-1.112c-2.257-2.628-1.508-5.43,0.939-7.67
			c2.469-2.119,5.679-2.055,7.608,0.191c2.502,2.915,0.544,6.145-1.515,7.774l-5.293-6.163c-1.474,1.184-2.052,3.09-0.505,4.89
			c0.957,1.114,2.168,1.431,3.44,0.752L391.777,183.403z M392.95,180.128c1.234-1.171,1.436-3.031,0.287-4.369
			c-1.217-1.418-3.009-1.346-4.349-0.36L392.95,180.128z"/>
		<path fill="#FFFFFF" d="M398.854,180.519l1.012,1.341l-1.828,1.378l0.025,0.033c1.909-0.361,3.317,0.076,4.43,1.657l-1.51,1.137
			c-1.73-2.298-3.67-2.15-5.866-0.494l-3.857,2.905l-1.073-1.425L398.854,180.519z"/>
		<path fill="#FFFFFF" d="M402.071,198.034c-2.264,0.92-4.301,0.203-5.647-1.828c-1.914-2.889-0.823-5.578,1.886-7.499
			c2.714-1.798,5.894-1.336,7.53,1.133c2.123,3.205-0.221,6.17-2.468,7.533l-4.491-6.776c-1.61,0.991-2.419,2.813-1.108,4.792
			c0.813,1.226,1.977,1.689,3.324,1.174L402.071,198.034z M403.642,194.927c1.371-1.01,1.802-2.833,0.827-4.303
			c-1.034-1.56-2.822-1.71-4.274-0.897L403.642,194.927z"/>
		<path fill="#FFFFFF" d="M413.249,194.358l1.172,2.016l-2.016,1.172c-1.435,0.833-3.018,0.951-3.83-0.446l0.908-0.527
			c0.475,0.816,1.537,0.515,2.373,0.029l-0.623-1.071L413.249,194.358z"/>
		<path fill="#FFFFFF" d="M405.719,204.477c-1.386,0.794-1.192,2.257-0.513,3.561c0.516,0.987,1.438,2.212,2.648,1.581
			c1.229-0.642,0.618-2.313,0.146-4.081c-0.462-1.748-0.766-3.604,1.078-4.565c1.938-1.01,3.738,0.49,4.612,2.167
			c1.107,2.124,1.321,4.168-0.958,5.522l-0.826-1.584c1.172-0.752,0.999-2.036,0.455-3.079c-0.494-0.95-1.329-1.913-2.297-1.408
			c-1.137,0.593-0.448,2.366-0.035,4.022c0.472,1.768,0.766,3.604-1.098,4.575c-2.29,1.194-4.152-0.56-5.172-2.515
			c-1.127-2.161-1.203-4.443,1.133-5.779L405.719,204.477z"/>
		<path fill="#FFFFFF" d="M423.377,214.471l0.728,1.993l-8.716,11.586l0.015,0.04l11.422-4.169l0.648,1.776l-14.086,5.141
			l-0.749-2.052l8.619-11.484l-0.015-0.04l-11.305,4.125l-0.647-1.774L423.377,214.471z"/>
		<path fill="#FFFFFF" d="M426.042,235.114c0.865,3.333-1.095,5.729-4.185,6.531c-3.069,0.797-5.946-0.345-6.812-3.678
			c-0.865-3.334,1.094-5.73,4.164-6.526C422.3,230.64,425.177,231.779,426.042,235.114z M416.57,237.572
			c0.469,1.809,2.271,2.903,4.813,2.243c2.562-0.664,3.604-2.496,3.135-4.306s-2.272-2.904-4.832-2.238
			C417.144,233.93,416.101,235.763,416.57,237.572z"/>
		<path fill="#FFFFFF" d="M427.581,242.777l0.313,1.651l-2.25,0.425l0.009,0.041c1.873,0.522,2.941,1.538,3.238,3.448l-1.856,0.353
			c-0.535-2.828-2.34-3.555-5.043-3.044l-4.746,0.897l-0.332-1.753L427.581,242.777z"/>
		<path fill="#FFFFFF" d="M429.227,252.531l0.301,2.142l-1.561,0.219l-0.3-2.142l-6.676,0.935c-0.812,0.113-0.926,0.362-0.771,1.465
			l0.113,0.811l-1.56,0.219l-0.189-1.352c-0.256-1.831,0.017-2.61,1.992-2.888l6.844-0.958l-0.257-1.83l1.56-0.219l0.257,1.83
			l3.225-0.451l0.247,1.768L429.227,252.531z"/>
		<path fill="#FFFFFF" d="M433.974,256.786l0.134,1.78l-5.719,0.43l0.003,0.041c1.343,0.49,2.002,1.978,2.1,3.276
			c0.213,2.85-1.355,3.852-3.681,4.025l-7.122,0.532l-0.134-1.779l7.332-0.55c1.319-0.099,2.116-1.001,2.015-2.361
			c-0.162-2.158-1.686-3.098-3.634-2.951l-6.117,0.458l-0.133-1.781L433.974,256.786z"/>
		<path fill="#FFFFFF" d="M422.081,272.534l-0.016,2.33l-2.33-0.015l0.016-2.331L422.081,272.534z M430.083,269.165
			c2.878-0.023,5.028,1.797,5.008,4.736c-0.016,2.582-1.562,4.421-4.229,4.402c-1.722-0.01-2.682-0.899-3.558-1.829
			c-0.854-0.909-1.668-1.838-3.096-1.848l-0.818-0.005l0.011-1.785l0.987,0.007c1.723,0.012,2.66,1.066,3.494,1.912
			c0.813,0.825,1.606,1.754,3.16,1.66c1.534-0.095,2.464-1.035,2.475-2.525c0.013-1.994-1.514-2.949-3.446-2.94L430.083,269.165z"/>
		<path fill="#FFFFFF" d="M434.006,288.666l-0.89,6.512c-0.404,2.954-2.267,4.331-5.012,3.956c-2.747-0.376-4.192-2.205-3.768-5.156
			l0.62-4.535l-6.074-0.83l0.27-1.977L434.006,288.666z M426.621,289.671l-0.529,3.868c-0.325,2.223,0.515,3.377,2.282,3.618
			c1.769,0.241,2.865-0.646,3.168-2.873l0.529-3.869L426.621,289.671z"/>
		<path fill="#FFFFFF" d="M427.778,301.838l-0.354,1.749l-10.641-2.153l0.354-1.749L427.778,301.838z M429.339,303.975l0.354-1.75
			l2.14,0.434l-0.354,1.749L429.339,303.975z"/>
		<path fill="#FFFFFF" d="M421.569,312.976c1.39,0.08,2.4-0.634,2.771-2.057c0.65-2.5-1.119-3.785-3.254-4.342
			c-1.931-0.502-4.069-0.125-4.641,2.069c-0.434,1.667,0.283,2.916,1.81,3.553l-0.46,1.769c-2.46-1.054-3.567-3.055-2.88-5.697
			c0.838-3.211,3.518-4.336,6.647-3.521c3.149,0.82,5.206,3.092,4.339,6.424c-0.619,2.378-2.234,3.998-4.799,3.591L421.569,312.976z
			"/>
		<path fill="#FFFFFF" d="M427.56,319.581l-0.581,1.688l-8.396-2.895l2.871,6.23l-0.78,2.263l-2.328-5.354l-8.035,2.115l0.739-2.144
			l6.569-1.666l-0.921-2.094l-3.89-1.341l0.581-1.688L427.56,319.581z"/>
		<path fill="#FFFFFF" d="M403.501,338.57c-0.033-0.366,0.046-0.771,0.293-1.281c0.402-0.832,1.112-1.142,2.171-0.63
			c-0.61-1.391-0.507-2.811,0.153-4.171c0.858-1.777,2.357-2.849,4.304-1.907c2.212,1.071,1.889,2.943,1.405,4.762
			c-0.52,1.942-1.365,3.399-0.155,3.985c1.399,0.677,2.184-0.366,2.679-1.388c0.658-1.361,0.727-2.564-0.674-3.335l0.778-1.606
			c2.373,1.265,2.319,3.549,1.267,5.722c-0.851,1.759-2.171,3.476-4.459,2.369l-5.028-2.433c-0.755-0.366-1.097-0.531-1.343-0.021
			c-0.064,0.133-0.119,0.293-0.144,0.537L403.501,338.57z M409.772,338.386c-0.152-0.844,0.414-2.063,0.746-3.232
			c0.324-1.149,0.385-2.24-0.807-2.816c-1.059-0.512-1.875,0.213-2.352,1.195c-1.023,2.117-0.121,3.628,0.768,4.057L409.772,338.386
			z"/>
		<path fill="#FFFFFF" d="M394.699,352.862l0.97-1.499l1.234,0.799l0.022-0.034c-0.686-1.145-0.373-2.593,0.437-3.844
			c1.813-2.804,4.936-2.759,7.509-1.093c2.573,1.665,3.852,4.442,2.05,7.228c-0.604,0.935-1.824,2.045-3.332,2.021l-0.023,0.034
			l4.689,3.034l-0.97,1.498L394.699,352.862z M398.547,349.351c-1.3,2.01-0.074,3.902,1.636,5.009
			c1.798,1.164,3.979,1.426,5.314-0.637c1.322-2.045,0.022-3.861-1.758-5.014C402.029,347.603,399.802,347.411,398.547,349.351z"/>
		<path fill="#FFFFFF" d="M401.837,361.42l-1.059,1.438l-8.744-6.44l1.059-1.438L401.837,361.42z M402.351,364.016l1.06-1.437
			l1.759,1.295l-1.06,1.437L402.351,364.016z"/>
		<path fill="#FFFFFF" d="M398.954,365.274l-1.052,1.311l-1.786-1.432l-0.025,0.032c0.821,1.763,0.743,3.234-0.515,4.703
			l-1.475-1.183c1.8-2.245,1.18-4.089-0.967-5.81l-3.769-3.022l1.117-1.394L398.954,365.274z"/>
		<path fill="#FFFFFF" d="M382.758,372.696c-1.446-1.969-1.252-4.118,0.387-5.922c2.331-2.563,5.205-2.166,7.731-0.012
			c2.409,2.19,2.74,5.386,0.747,7.577c-2.585,2.845-6.034,1.299-7.906-0.545l5.468-6.015c-1.356-1.318-3.32-1.655-4.917,0.101
			c-0.989,1.089-1.152,2.33-0.323,3.51L382.758,372.696z M386.154,373.456c1.315,1.082,3.188,1.052,4.374-0.253
			c1.258-1.384,0.965-3.154-0.178-4.363L386.154,373.456z"/>
		<path fill="#FFFFFF" d="M378.646,382.021c1.134,0.81,2.369,0.744,3.441-0.263c1.884-1.768,1.071-3.8-0.438-5.408
			c-1.365-1.455-3.376-2.276-5.029-0.724c-1.257,1.179-1.316,2.617-0.364,3.972l-1.333,1.249c-1.52-2.201-1.389-4.486,0.604-6.355
			c2.42-2.271,5.287-1.793,7.501,0.565c2.228,2.374,2.757,5.393,0.244,7.749c-1.791,1.682-4.021,2.19-5.974,0.479L378.646,382.021z"
			/>
		<path fill="#FFFFFF" d="M375.818,389.005l-1.666,1.379l-1.004-1.214l1.667-1.378l-4.297-5.194
			c-0.521-0.631-0.793-0.597-1.65,0.112l-0.631,0.522l-1.004-1.214l1.051-0.869c1.425-1.178,2.231-1.355,3.503,0.182l4.403,5.323
			l1.424-1.179l1.003,1.214l-1.423,1.178l2.074,2.508l-1.375,1.138L375.818,389.005z"/>
		<path fill="#FFFFFF" d="M372.271,391.838l-1.42,1.083l-6.586-8.636l1.42-1.082L372.271,391.838z M372.035,394.475l1.419-1.083
			l1.325,1.737l-1.42,1.082L372.035,394.475z"/>
		<path fill="#FFFFFF" d="M364.558,397.709c-2.855,1.926-5.767,0.876-7.551-1.771c-1.773-2.629-1.655-5.722,1.2-7.646
			c2.854-1.926,5.767-0.876,7.54,1.753C367.531,392.691,367.413,395.784,364.558,397.709z M359.087,389.597
			c-1.549,1.046-1.98,3.108-0.514,5.286c1.479,2.193,3.555,2.566,5.104,1.521c1.55-1.046,1.98-3.109,0.501-5.303
			C362.712,388.926,360.637,388.553,359.087,389.597z"/>
		<path fill="#FFFFFF" d="M357.739,401.838l-1.464,0.823l-0.844-1.502l-0.036,0.021c-0.001,1.543-0.755,2.688-2.109,3.449
			c-2.49,1.397-4.061,0.402-5.202-1.629l-3.498-6.225l1.557-0.875l3.6,6.407c0.648,1.154,1.803,1.493,2.992,0.824
			c1.886-1.06,2.092-2.836,1.135-4.539l-3.003-5.347l1.556-0.873L357.739,401.838z"/>
		<path fill="#FFFFFF" d="M332.824,397.659c3.109,2.079,5.487,4.319,6.959,7.688c1.312,3.003,1.675,6.718,0.855,10.195l-1.251,0.546
			c0.566-3.687,0.025-6.866-1.337-9.984c-1.413-3.233-3.362-5.753-6.478-7.898L332.824,397.659z"/>
		<path fill="#FFFFFF" d="M328.024,411.872c0.729,1.187,1.892,1.607,3.271,1.099c2.423-0.895,2.467-3.083,1.702-5.151
			c-0.689-1.871-2.221-3.411-4.35-2.625c-1.615,0.597-2.231,1.898-1.881,3.515l-1.714,0.634c-0.542-2.62,0.47-4.673,3.03-5.618
			c3.113-1.15,5.568,0.407,6.688,3.44c1.127,3.054,0.439,6.04-2.792,7.232c-2.305,0.852-4.558,0.451-5.688-1.885L328.024,411.872z"
			/>
		<path fill="#FFFFFF" d="M320.517,418.085c-3.319,0.924-5.749-0.995-6.604-4.069c-0.85-3.056,0.24-5.954,3.559-6.876
			c3.318-0.924,5.749,0.995,6.599,4.049C324.925,414.265,323.835,417.162,320.517,418.085z M317.893,408.657
			c-1.801,0.5-2.863,2.322-2.159,4.851c0.709,2.55,2.56,3.562,4.36,3.059c1.801-0.499,2.864-2.321,2.154-4.871
			C321.544,409.166,319.693,408.155,317.893,408.657z"/>
		<path fill="#FFFFFF" d="M312.683,419.845l-1.65,0.313l-0.321-1.69l-0.041,0.008c-0.491,1.462-1.571,2.307-3.097,2.597
			c-2.806,0.533-3.978-0.911-4.412-3.201l-1.332-7.013l1.753-0.333l1.372,7.22c0.246,1.299,1.231,1.988,2.573,1.733
			c2.124-0.403,2.885-2.022,2.521-3.941l-1.143-6.021l1.752-0.334L312.683,419.845z"/>
		<path fill="#FFFFFF" d="M298.253,422.236l-2.146,0.267l-0.193-1.563l2.146-0.267l-0.828-6.69
			c-0.101-0.813-0.348-0.931-1.453-0.794l-0.813,0.101l-0.193-1.563l1.355-0.168c1.834-0.228,2.609,0.058,2.854,2.038l0.849,6.857
			l1.834-0.228l0.193,1.563l-1.834,0.227l0.4,3.231l-1.772,0.219L298.253,422.236z"/>
		<path fill="#FFFFFF" d="M284.003,415.932c0.338-2.418,1.978-3.821,4.408-3.968c3.457-0.209,5.236,2.081,5.541,5.386
			c0.197,3.247-1.797,5.766-4.75,5.944c-3.835,0.231-5.225-3.28-5.279-5.906l8.109-0.49c-0.051-1.89-1.221-3.502-3.589-3.357
			c-1.467,0.088-2.45,0.862-2.68,2.285L284.003,415.932z M285.904,418.846c0.187,1.692,1.547,2.976,3.308,2.87
			c1.864-0.112,2.89-1.584,2.916-3.247L285.904,418.846z"/>
		<path fill="#FFFFFF" d="M278.987,418.157l3.688,5.212l-2.288-0.04l-2.537-3.847l-2.776,3.752l-2.142-0.038l3.826-4.931
			l-4.096-5.934l2.289,0.04l2.944,4.547l3.104-4.439l2.162,0.038L278.987,418.157z"/>
		<path fill="#FFFFFF" d="M268.035,422.806l-2.157-0.171l0.123-1.57l2.158,0.17l0.527-6.722c0.064-0.816-0.154-0.982-1.265-1.069
			l-0.816-0.063l0.123-1.571l1.361,0.106c1.843,0.145,2.546,0.579,2.39,2.568l-0.541,6.891l1.844,0.146l-0.124,1.569l-1.843-0.144
			l-0.256,3.245l-1.779-0.14L268.035,422.806z"/>
		<path fill="#FFFFFF" d="M266.945,407.657c-2.359,2.888-3.509,5.898-3.918,9.275c-0.426,3.502-0.026,6.66,1.566,10.09l-1.354-0.166
			c-1.621-3.369-2.53-6.504-2.088-10.151c0.395-3.251,1.969-6.636,4.439-9.211L266.945,407.657z"/>
		<path fill="#FFFFFF" d="M244.675,407.968c0.348-0.117,0.761-0.132,1.313-0.009c0.902,0.201,1.366,0.822,1.109,1.969
			c1.215-0.911,2.62-1.136,4.097-0.807c1.926,0.431,3.312,1.644,2.84,3.755c-0.535,2.397-2.433,2.513-4.313,2.458
			c-2.009-0.063-3.621-0.551-3.914,0.761c-0.339,1.517,0.856,2.041,1.963,2.288c1.476,0.33,2.662,0.121,3.093-1.417l1.741,0.389
			c-0.688,2.601-2.923,3.069-5.279,2.542c-1.906-0.425-3.88-1.317-3.326-3.797l1.218-5.451c0.183-0.821,0.266-1.189-0.287-1.313
			c-0.145-0.032-0.313-0.048-0.557-0.017L244.675,407.968z M246.29,414.029c0.785-0.342,2.102-0.068,3.315-0.013
			c1.193,0.052,2.269-0.139,2.557-1.43c0.257-1.148-0.636-1.777-1.701-2.016c-2.295-0.513-3.559,0.712-3.773,1.675L246.29,414.029z"
			/>
		<path fill="#FFFFFF" d="M240.159,417.921l-1.605-0.495l0.508-1.646l-0.041-0.013c-1.117,1.062-2.467,1.306-3.952,0.848
			c-2.729-0.842-3.091-2.667-2.403-4.894l2.103-6.823l1.706,0.525l-2.165,7.023c-0.39,1.265,0.159,2.335,1.464,2.736
			c2.067,0.638,3.498-0.438,4.072-2.304l1.806-5.86l1.706,0.525L240.159,417.921z"/>
		<path fill="#FFFFFF" d="M223.49,400.476l1.655,0.669l-0.549,1.363l0.039,0.016c0.993-0.891,2.476-0.859,3.859-0.301
			c3.098,1.248,3.647,4.323,2.501,7.169c-1.146,2.845-3.633,4.629-6.711,3.389c-1.033-0.417-2.356-1.403-2.618-2.891l-0.039-0.016
			l-2.089,5.184l-1.657-0.668L223.49,400.476z M227.672,403.589c-2.222-0.895-3.849,0.669-4.61,2.559
			c-0.801,1.987-0.643,4.182,1.637,5.1c2.261,0.911,3.799-0.711,4.592-2.68C230.052,406.677,229.815,404.453,227.672,403.589z"/>
		<path fill="#FFFFFF" d="M206.363,395.44c1.585-1.857,3.724-2.157,5.853-0.975c3.028,1.684,3.297,4.572,1.776,7.522
			c-1.581,2.846-4.616,3.897-7.204,2.458c-3.359-1.866-2.643-5.577-1.275-7.82l7.104,3.949c0.973-1.622,0.853-3.61-1.221-4.764
			c-1.285-0.714-2.531-0.589-3.49,0.487L206.363,395.44z M206.399,398.921c-0.753,1.528-0.297,3.343,1.245,4.2
			c1.634,0.908,3.289,0.219,4.206-1.17L206.399,398.921z"/>
		<path fill="#FFFFFF" d="M200.955,394.639l0.313,6.374l-1.908-1.263l-0.073-4.605l-4.355,1.674l-1.786-1.182l5.874-2.104
			l-0.268-7.2l1.907,1.262l0.041,5.415l5.001-2.077l1.803,1.193L200.955,394.639z"/>
		<path fill="#FFFFFF" d="M190.983,394.084l-1.403-1.104l0.91-1.155l-0.034-0.026c-1.202,0.578-2.617,0.133-3.788-0.79
			c-2.625-2.065-2.292-5.172-0.396-7.582c1.897-2.41,4.783-3.428,7.392-1.375c0.875,0.688,1.87,2.006,1.705,3.507l0.032,0.026
			l3.47-4.408l1.403,1.104L190.983,394.084z M187.841,389.926c1.881,1.481,3.881,0.435,5.141-1.167
			c1.325-1.684,1.788-3.833-0.144-5.354c-1.915-1.506-3.847-0.379-5.157,1.289C186.42,386.296,186.024,388.497,187.841,389.926z"/>
		<path fill="#FFFFFF" d="M178.205,389.001l-1.334-1.187l9.97-11.204l1.334,1.187L178.205,389.001z"/>
		<path fill="#FFFFFF" d="M173.718,379.463c-2.436-2.438-1.959-5.497,0.301-7.755c2.244-2.241,5.305-2.715,7.739-0.277
			c2.435,2.437,1.958,5.496-0.286,7.738C179.214,381.426,176.153,381.899,173.718,379.463z M180.644,372.544
			c-1.321-1.322-3.431-1.353-5.289,0.502c-1.872,1.871-1.844,3.98-0.521,5.304c1.321,1.322,3.43,1.354,5.303-0.518
			C181.993,375.977,181.965,373.866,180.644,372.544z"/>
		<path fill="#FFFFFF" d="M168.517,373.627l-1.104-1.266l1.726-1.506l-0.028-0.031c-1.88,0.497-3.315,0.162-4.539-1.336l1.425-1.243
			c1.892,2.167,3.816,1.882,5.891,0.074l3.639-3.178l1.174,1.346L168.517,373.627z"/>
		<path fill="#FFFFFF" d="M164.064,356.388c2.191-1.079,4.273-0.511,5.761,1.419c2.115,2.744,1.219,5.503-1.345,7.612
			c-2.577,1.988-5.782,1.752-7.59-0.593c-2.346-3.044-0.22-6.168,1.924-7.688l4.962,6.438c1.535-1.105,2.212-2.979,0.764-4.858
			c-0.898-1.164-2.092-1.543-3.398-0.934L164.064,356.388z M162.72,359.597c-1.295,1.105-1.594,2.953-0.518,4.351
			c1.142,1.48,2.936,1.503,4.326,0.59L162.72,359.597z"/>
		<path fill="#FFFFFF" d="M157.21,338.838l0.943,1.639l-6.384,6.217l0.021,0.036l8.574-2.411l0.963,1.676l-7.675,8.438l-0.984-1.711
			l6.476-6.562l-0.021-0.037l-8.791,2.538l-0.974-1.694l6.57-6.398l-0.021-0.035l-8.917,2.318l-0.922-1.602L157.21,338.838z"/>
		<path fill="#FFFFFF" d="M142.659,338.321l0.777,1.607l-1.967,0.951l-0.776-1.607L142.659,338.321z M145.194,339.077l-0.777-1.606
			l9.773-4.729l0.777,1.605L145.194,339.077z"/>
		<path fill="#FFFFFF" d="M142.129,332.422l-0.864-1.982l1.443-0.63l0.864,1.982l6.178-2.693c0.751-0.327,0.793-0.598,0.349-1.618
			l-0.327-0.75l1.443-0.629l0.545,1.25c0.738,1.694,0.686,2.519-1.143,3.315l-6.332,2.761l0.739,1.693l-1.444,0.629l-0.737-1.693
			l-2.983,1.301l-0.714-1.636L142.129,332.422z"/>
		<path fill="#FFFFFF" d="M136.412,329.597l-0.607-1.679l5.392-1.95l-0.014-0.038c-1.425-0.111-2.46-1.367-2.902-2.592
			c-0.971-2.685,0.27-4.071,2.461-4.864l6.715-2.428l0.607,1.679l-6.912,2.499c-1.244,0.449-1.769,1.532-1.305,2.816
			c0.735,2.033,2.455,2.529,4.292,1.864l5.767-2.085l0.606,1.679L136.412,329.597z"/>
		<path fill="#FFFFFF" d="M145.627,303.753c2.251,0.318,3.174,0.859,3.534,2.414c0.096,0.409,0.15,0.828,0.096,1.249l-1.596,0.371
			c0.027-0.352,0.09-0.732,0.009-1.08c-0.166-0.716-0.604-1.024-1.293-1.208l-1.967-0.301l-9.542,6.634l-0.455-1.964l7.937-5.097
			l-0.01-0.041l-9.341-0.959l-0.428-1.841L145.627,303.753z"/>
		<path fill="#FFFFFF" d="M131.255,295.271c-0.51-3.405,1.691-5.582,4.848-6.055c3.137-0.469,5.877,0.968,6.388,4.375
			c0.509,3.405-1.692,5.582-4.828,6.051C134.506,300.115,131.764,298.678,131.255,295.271z M140.933,293.824
			c-0.276-1.848-1.954-3.126-4.55-2.737c-2.617,0.392-3.848,2.104-3.571,3.951c0.277,1.85,1.955,3.128,4.571,2.736
			C139.979,297.386,141.209,295.673,140.933,293.824z"/>
		<path fill="#FFFFFF" d="M140.721,277.63l0.108,1.675l-1.718,0.111l0.003,0.043c1.389,0.667,2.097,1.842,2.197,3.392
			c0.184,2.851-1.394,3.837-3.719,3.986l-7.124,0.462l-0.116-1.781l7.334-0.475c1.32-0.085,2.125-0.979,2.037-2.342
			c-0.14-2.157-1.654-3.111-3.603-2.985l-6.118,0.396l-0.115-1.782L140.721,277.63z"/>
		<path fill="#FFFFFF" d="M129.853,275.22l0.001-1.68l2.29,0.001v-0.043c-1.744-0.862-2.604-2.061-2.541-3.992h1.891
			c0,2.879,1.637,3.93,4.39,3.931l4.831,0.003v1.785L129.853,275.22z"/>
		<path fill="#FFFFFF" d="M130.79,254.196c-1.354,0.024-2.33,0.849-2.48,2.248c-0.325,3.027,2.965,3.866,5.231,4.193l0.046-0.037
			c-1.268-0.981-1.717-2.296-1.545-3.903c0.305-2.841,2.553-4.31,5.289-4.016c2.149,0.23,4.838,1.743,4.438,5.481
			c-0.471,4.384-4.555,4.664-7.666,4.331c-4.072-0.438-7.802-2.084-7.35-6.301c0.262-2.443,1.803-3.819,4.228-3.771L130.79,254.196z
			 M136.584,260.627c1.837,0.196,3.419-0.774,3.628-2.715c0.206-1.922-1.204-3.15-2.958-3.339c-1.837-0.197-3.464,0.601-3.682,2.626
			C133.359,259.183,134.726,260.427,136.584,260.627z"/>
		<path fill="#FFFFFF" d="M128.742,242.261l0.409-1.736l5.457,1.284l0.009-0.042c-1.03-0.846-1.224-2.314-0.882-3.767
			c0.764-3.25,3.719-4.258,6.703-3.556c2.984,0.701,5.123,2.888,4.363,6.116c-0.254,1.084-1.029,2.541-2.459,3.023l-0.009,0.042
			l1.41,0.331l-0.409,1.737L128.742,242.261z M135.21,238.606c-0.548,2.33,1.244,3.701,3.227,4.167
			c2.084,0.49,4.227,0.003,4.789-2.39c0.558-2.37-1.278-3.644-3.342-4.129C137.901,235.787,135.739,236.358,135.21,238.606z"/>
		<path fill="#FFFFFF" d="M145.807,224.06c2.129,1.198,2.837,3.238,2.086,5.556c-1.068,3.296-3.851,4.116-7.04,3.193
			c-3.096-1.003-4.714-3.779-3.801-6.597c1.185-3.655,4.964-3.667,7.429-2.758l-2.505,7.731c1.777,0.643,3.707,0.141,4.438-2.116
			c0.452-1.398,0.091-2.597-1.15-3.331L145.807,224.06z M142.399,224.767c-1.645-0.444-3.338,0.354-3.882,2.031
			c-0.576,1.778,0.42,3.271,1.96,3.902L142.399,224.767z"/>
		<path fill="#FFFFFF" d="M146.976,221.173c1.502,0.548,2.494-0.543,3.053-1.904c0.423-1.03,0.764-2.524-0.5-3.043
			c-1.282-0.526-2.166,1.018-3.213,2.519c-1.039,1.481-2.262,2.91-4.186,2.121c-2.021-0.829-2.035-3.175-1.317-4.923
			c0.909-2.216,2.335-3.698,4.839-2.829l-0.678,1.651c-1.331-0.409-2.201,0.551-2.648,1.64c-0.406,0.99-0.604,2.249,0.406,2.663
			c1.186,0.487,2.098-1.183,3.097-2.566c1.047-1.501,2.261-2.909,4.204-2.112c2.392,0.981,2.251,3.534,1.414,5.576
			c-0.925,2.254-2.62,3.784-5.147,2.86L146.976,221.173z"/>
		<path fill="#FFFFFF" d="M145.061,207.049l0.939-1.948l1.419,0.685l-0.939,1.948l6.074,2.927c0.738,0.355,0.971,0.211,1.453-0.792
			l0.356-0.737l1.419,0.683l-0.593,1.23c-0.802,1.666-1.462,2.164-3.26,1.298l-6.225-3l-0.803,1.666l-1.419-0.685l0.803-1.665
			l-2.934-1.413l0.775-1.608L145.061,207.049z"/>
		<path fill="#FFFFFF" d="M151.759,197.851l-0.932,1.572l-1.354-0.804l0.932-1.571l-1.391-0.824
			c-1.517-0.899-1.775-2.273-0.779-3.952c0.171-0.289,0.472-0.673,0.733-0.907l1.336,0.792c-0.25,0.217-0.479,0.521-0.641,0.791
			c-0.438,0.74-0.461,1.313,0.352,1.796l1.301,0.771l1.07-1.805l1.354,0.802l-1.07,1.807l7.981,4.732l-0.91,1.535L151.759,197.851z"
			/>
		<path fill="#FFFFFF" d="M153.394,192.123l0.922-1.403l1.912,1.256l0.023-0.035c-0.983-1.676-1.046-3.148,0.068-4.728l1.578,1.038
			c-1.58,2.403-0.788,4.179,1.51,5.69l4.035,2.651l-0.98,1.491L153.394,192.123z"/>
		<path fill="#FFFFFF" d="M157.008,183.356l-1.04,1.451l-1.775-1.273l1.041-1.45L157.008,183.356z M157.554,185.945l1.041-1.451
			l8.822,6.327l-1.04,1.451L157.554,185.945z"/>
		<path fill="#FFFFFF" d="M172.031,179.338c1.562,1.879,1.495,4.037-0.034,5.934c-2.174,2.699-5.066,2.473-7.717,0.472
			c-2.533-2.042-3.055-5.212-1.196-7.519c2.411-2.993,5.945-1.655,7.925,0.074l-5.101,6.328c1.433,1.236,3.413,1.456,4.901-0.393
			c0.924-1.145,1.013-2.394,0.115-3.522L172.031,179.338z M168.596,178.781c-1.377-1.002-3.244-0.86-4.351,0.514
			c-1.174,1.455-0.776,3.206,0.437,4.344L168.596,178.781z"/>
		<path fill="#FFFFFF" d="M168.009,172.718l1.157-1.22l1.249,1.188l0.028-0.031c-0.454-1.474-0.071-2.791,0.999-3.918
			c1.967-2.071,3.762-1.583,5.453,0.023l5.178,4.918l-1.229,1.294l-5.33-5.063c-0.959-0.911-2.163-0.896-3.103,0.095
			c-1.49,1.569-1.163,3.328,0.254,4.673l4.447,4.225l-1.229,1.294L168.009,172.718z"/>
		<path fill="#FFFFFF" d="M191.053,165.54l-1.335,1.186l-0.976-1.099l-0.032,0.027c0.356,1.286-0.332,2.6-1.445,3.59
			c-2.498,2.217-5.496,1.341-7.533-0.951c-2.036-2.293-2.527-5.313-0.046-7.517c0.831-0.739,2.305-1.484,3.752-1.058l0.031-0.027
			l-3.711-4.178l1.335-1.186L191.053,165.54z M186.405,167.898c1.791-1.59,1.114-3.742-0.239-5.266
			c-1.423-1.603-3.456-2.437-5.294-0.805c-1.821,1.619-1.053,3.718,0.356,5.304C182.582,168.655,184.678,169.433,186.405,167.898z"
			/>
		<path fill="#FFFFFF" d="M191.809,160.608c1.011,1.236,2.42,0.805,3.594-0.08c0.889-0.67,1.944-1.781,1.123-2.87
			c-0.834-1.106-2.382-0.23-4.047,0.524c-1.648,0.743-3.427,1.349-4.678-0.312c-1.314-1.744-0.13-3.767,1.378-4.903
			c1.912-1.439,3.893-1.986,5.603,0.038l-1.425,1.073c-0.936-1.03-2.174-0.65-3.112,0.058c-0.854,0.646-1.667,1.625-1.011,2.496
			c0.771,1.023,2.406,0.054,3.972-0.625c1.665-0.756,3.427-1.349,4.69,0.328c1.554,2.063,0.131,4.187-1.629,5.514
			c-1.945,1.465-4.183,1.915-5.884-0.168L191.809,160.608z"/>
	</g>
</g>
<g>
	<path fill="#FFFFFF" d="M279.458,441.906c-93.597,0-169.743-76.146-169.743-169.743S185.861,102.42,279.458,102.42
		s169.743,76.146,169.743,169.743S373.055,441.906,279.458,441.906z M279.458,107.42c-90.84,0-164.743,73.903-164.743,164.743
		s73.903,164.743,164.743,164.743s164.743-73.903,164.743-164.743S370.298,107.42,279.458,107.42z"/>
</g>
<g>
	<path fill="#FFFFFF" d="M79.545,90.459h-2.377l-1.08-14.785H76.04l-6.769,14.785h-2.448l-1.08-17.138H68l0.6,14.425h0.048
		l6.577-14.425h2.592l0.96,14.474h0.048l6.241-14.474h2.352L79.545,90.459z"/>
	<path fill="#FFFFFF" d="M89.551,73.321h2.041l-1.465,6.553l0.048,0.048c1.032-1.393,2.713-2.16,4.417-2.16
		c2.328,0,3.456,1.008,3.456,3.192c0,0.528-0.144,1.464-0.36,2.425l-1.512,7.08h-2.04l1.584-7.248
		c0.096-0.457,0.288-1.488,0.288-1.921c0-1.176-0.96-1.728-2.16-1.728c-1.128,0-2.305,0.623-3.072,1.439
		c-0.72,0.624-1.104,1.608-1.368,2.592l-1.44,6.865h-2.04L89.551,73.321z"/>
	<path fill="#FFFFFF" d="M106.736,77.762c3.313,0,5.16,1.824,5.16,5.137c0,4.057-2.521,7.849-6.864,7.849
		c-3.265,0-5.232-2.185-5.232-5.185C99.8,81.506,102.392,77.762,106.736,77.762z M105.248,88.947c2.977,0,4.608-3.433,4.608-5.881
		c0-1.944-1.032-3.504-3.265-3.504c-3.12,0-4.752,3.408-4.752,5.977C101.84,87.578,103.016,88.947,105.248,88.947z"/>
	<path fill="#FFFFFF" d="M117.056,73.321h2.664c-0.624,2.688-0.624,5.905-3.984,6.192l0.24-1.152
		c1.271-0.191,1.56-1.295,1.848-2.375h-1.344L117.056,73.321z"/>
	<path fill="#FFFFFF" d="M127.039,81.698c0.097-1.416-1.152-2.136-2.568-2.136c-1.248,0-2.64,0.336-2.64,1.584
		c0,1.152,1.632,1.607,3.264,2.279c1.633,0.673,3.289,1.537,3.289,3.48c0,2.761-2.665,3.841-5.064,3.841
		c-2.833,0-5.041-1.032-5.017-4.2h2.04c-0.096,1.848,1.464,2.4,3.168,2.4c1.32,0,2.832-0.48,2.832-1.896
		c0-1.2-1.632-1.68-3.264-2.353c-1.656-0.647-3.288-1.487-3.288-3.36c0-2.304,2.304-3.576,4.608-3.576
		c2.304,0,4.68,1.032,4.68,3.937H127.039z"/>
	<path fill="#FFFFFF" d="M151.976,75.242h-5.761l-3.216,15.217h-2.28l3.216-15.217h-5.76l0.408-1.921h13.825L151.976,75.242z"/>
	<path fill="#FFFFFF" d="M149.575,81.795c0.407-2.761,2.736-4.033,5.376-4.033c2.4,0,4.536,0.648,4.536,3.168
		c0,0.696-0.239,1.584-0.384,2.257l-0.792,3.384c-0.096,0.504-0.336,1.2-0.336,1.776s0.264,0.769,0.6,0.769
		c0.192,0,0.456-0.096,0.648-0.168l-0.312,1.512c-0.313,0.168-0.889,0.288-1.249,0.288c-1.128,0-1.728-0.672-1.607-1.753
		l-0.048-0.047c-0.864,1.152-2.064,1.8-4.152,1.8c-2.064,0-3.793-0.96-3.793-3.505c0-3.6,3.528-3.84,6.265-4.08
		c2.16-0.191,3.12-0.313,3.12-1.968c0-1.345-1.416-1.632-2.496-1.632c-1.56,0-3.096,0.623-3.336,2.232H149.575z M152.335,88.947
		c1.584,0,2.761-0.528,3.48-1.633c0.672-0.936,0.792-2.04,1.08-3.191h-0.048c-0.889,0.527-2.496,0.647-3.984,0.84
		c-1.464,0.216-2.761,0.672-2.761,2.256C150.103,88.371,151.183,88.947,152.335,88.947z"/>
	<path fill="#FFFFFF" d="M164.239,73.321h2.04l-3.601,17.138h-2.04L164.239,73.321z"/>
	<path fill="#FFFFFF" d="M169.59,73.321h2.017l-2.136,10.081l0.048,0.048l6.24-5.4h2.664l-5.4,4.585l3.072,7.824h-2.28l-2.424-6.601
		l-2.448,2.185l-0.937,4.416h-2.04L169.59,73.321z"/>
	<path fill="#FFFFFF" d="M180.103,78.05h2.04l-2.593,12.409h-2.04L180.103,78.05z M182.622,75.818h-2.063l0.527-2.497h2.064
		L182.622,75.818z"/>
	<path fill="#FFFFFF" d="M185.454,78.05h1.969l-0.385,1.872h0.048c1.032-1.393,2.713-2.16,4.417-2.16
		c2.328,0,3.456,1.008,3.456,3.192c0,0.528-0.144,1.464-0.36,2.425l-1.512,7.08h-2.04l1.584-7.248
		c0.096-0.457,0.288-1.488,0.288-1.921c0-1.176-0.96-1.728-2.16-1.728c-1.128,0-2.305,0.623-3.072,1.439
		c-0.72,0.624-1.104,1.608-1.368,2.592l-1.44,6.865h-2.04L185.454,78.05z"/>
	<path fill="#FFFFFF" d="M207.318,88.658c-0.288,1.273-0.6,2.521-0.96,3.385c-1.056,2.473-3,3.457-5.641,3.457
		c-2.52,0-4.872-1.08-4.944-3.841h2.04c0.12,1.656,1.561,2.04,3.121,2.04c3.168,0,3.792-2.52,4.44-4.992l-0.049-0.049
		c-0.888,1.32-2.304,1.896-3.864,1.896c-3.072,0-4.656-2.184-4.656-5.137c0-3.672,2.425-7.656,6.457-7.656
		c1.8,0,3.576,0.961,3.936,2.521v0.048h0.049l0.384-2.28h1.92L207.318,88.658z M201.895,88.755c3.072,0,4.512-3.456,4.512-5.952
		c0-1.944-1.031-3.24-3.168-3.24c-2.856,0-4.393,3.576-4.393,5.855C198.846,87.195,199.854,88.755,201.895,88.755z"/>
	<path fill="#FFFFFF" d="M212.142,78.746c0.216-3.217,2.52-5.617,5.809-5.617c2.399,0,4.968,1.248,4.968,3.961
		c0,4.944-5.256,4.849-6.048,8.449l-0.097,0.527h-1.992c0.192-1.104,0.48-2.184,1.2-3.096c0.576-0.769,1.393-1.393,2.496-2.16
		c1.129-0.793,2.28-1.849,2.28-3.361c0-1.703-1.151-2.52-2.76-2.52c-2.28,0-3.625,1.68-3.816,3.816H212.142z M214.134,87.795h2.664
		l-0.576,2.664h-2.664L214.134,87.795z"/>
	<path fill="#FFFFFF" d="M79.064,104.041h-5.761l-3.216,15.218h-2.28l3.216-15.218h-5.76l0.408-1.92h13.825L79.064,104.041z"/>
	<path fill="#FFFFFF" d="M82.736,106.562c3.313,0,5.16,1.824,5.16,5.137c0,4.056-2.521,7.849-6.864,7.849
		c-3.265,0-5.232-2.184-5.232-5.185C75.8,110.307,78.392,106.562,82.736,106.562z M81.248,117.746c2.977,0,4.608-3.432,4.608-5.88
		c0-1.944-1.032-3.505-3.265-3.505c-3.12,0-4.752,3.408-4.752,5.977C77.84,116.379,79.016,117.746,81.248,117.746z"/>
	<path fill="#FFFFFF" d="M111.561,119.259h-2.377l-1.08-14.785h-0.048l-6.769,14.785h-2.448l-1.08-17.138h2.257l0.6,14.426h0.048
		l6.577-14.426h2.592l0.96,14.474h0.048l6.241-14.474h2.352L111.561,119.259z"/>
	<path fill="#FFFFFF" d="M121.566,102.121h2.041l-1.465,6.553l0.048,0.048c1.032-1.392,2.713-2.16,4.417-2.16
		c2.328,0,3.456,1.009,3.456,3.192c0,0.528-0.144,1.465-0.36,2.424l-1.512,7.081h-2.04l1.584-7.249
		c0.096-0.455,0.288-1.488,0.288-1.92c0-1.176-0.96-1.729-2.16-1.729c-1.128,0-2.305,0.625-3.072,1.44
		c-0.72,0.624-1.104,1.608-1.368,2.593l-1.44,6.864h-2.04L121.566,102.121z"/>
	<path fill="#FFFFFF" d="M138.752,106.562c3.313,0,5.16,1.824,5.16,5.137c0,4.056-2.521,7.849-6.864,7.849
		c-3.265,0-5.232-2.184-5.232-5.185C131.815,110.307,134.407,106.562,138.752,106.562z M137.264,117.746
		c2.977,0,4.608-3.432,4.608-5.88c0-1.944-1.032-3.505-3.265-3.505c-3.12,0-4.752,3.408-4.752,5.977
		C133.855,116.379,135.031,117.746,137.264,117.746z"/>
	<path fill="#FFFFFF" d="M147.703,106.85h1.896l-0.456,1.848l0.049,0.049c1.056-1.297,2.616-2.185,4.32-2.185
		c1.56,0,2.76,0.624,3.12,2.232c0.96-1.32,2.592-2.232,4.248-2.232c1.752,0,3.456,0.769,3.456,2.784
		c0,0.721-0.191,1.776-0.359,2.473l-1.561,7.44h-2.04l1.729-7.872c0.096-0.385,0.191-0.984,0.191-1.345
		c0-0.96-0.815-1.681-1.896-1.681c-1.152,0-2.425,0.816-3.121,1.705c-0.672,0.72-0.936,1.728-1.151,2.783l-1.368,6.409h-2.04
		l1.487-7.081c0.217-0.959,0.385-1.896,0.385-2.184c0-1.032-0.624-1.633-1.729-1.633c-1.128,0-2.328,0.769-3.048,1.584
		c-0.864,0.841-1.057,1.585-1.32,2.809l-1.393,6.505h-2.04L147.703,106.85z"/>
	<path fill="#FFFFFF" d="M167.694,107.546c0.216-3.216,2.52-5.616,5.809-5.616c2.399,0,4.968,1.248,4.968,3.96
		c0,4.944-5.256,4.849-6.048,8.448l-0.097,0.528h-1.992c0.192-1.104,0.48-2.185,1.2-3.097c0.576-0.768,1.393-1.392,2.496-2.16
		c1.129-0.791,2.28-1.848,2.28-3.359c0-1.705-1.151-2.521-2.76-2.521c-2.28,0-3.625,1.681-3.816,3.816H167.694z M169.687,116.595
		h2.664l-0.576,2.664h-2.664L169.687,116.595z"/>
	<path fill="#FFFFFF" d="M79.545,148.059h-2.377l-1.08-14.785H76.04l-6.769,14.785h-2.448l-1.08-17.137H68l0.6,14.425h0.048
		l6.577-14.425h2.592l0.96,14.473h0.048l6.241-14.473h2.352L79.545,148.059z"/>
	<path fill="#FFFFFF" d="M89.551,130.922h2.041l-1.465,6.553l0.048,0.047c1.032-1.392,2.713-2.16,4.417-2.16
		c2.328,0,3.456,1.009,3.456,3.193c0,0.527-0.144,1.464-0.36,2.424l-1.512,7.08h-2.04l1.584-7.248
		c0.096-0.456,0.288-1.488,0.288-1.92c0-1.176-0.96-1.729-2.16-1.729c-1.128,0-2.305,0.624-3.072,1.439
		c-0.72,0.625-1.104,1.609-1.368,2.593l-1.44,6.864h-2.04L89.551,130.922z"/>
	<path fill="#FFFFFF" d="M103.304,150.172c-1.008,1.607-1.92,2.928-4.008,2.928c-0.48,0-1.032-0.12-1.416-0.313l0.359-1.656
		c0.313,0.192,0.816,0.336,1.177,0.336c0.912,0,1.439-0.551,1.92-1.344l1.248-2.064l-2.185-12.408h2.185l1.44,9.864h0.048
		l5.208-9.864h2.232L103.304,150.172z"/>
	<path fill="#FFFFFF" d="M112.999,136.346c0.216-3.216,2.52-5.616,5.809-5.616c2.399,0,4.968,1.248,4.968,3.96
		c0,4.945-5.256,4.85-6.048,8.449l-0.097,0.527h-1.992c0.192-1.104,0.48-2.184,1.2-3.096c0.576-0.768,1.393-1.393,2.496-2.16
		c1.129-0.792,2.28-1.848,2.28-3.36c0-1.704-1.151-2.521-2.76-2.521c-2.28,0-3.625,1.681-3.816,3.816H112.999z M114.991,145.395
		h2.664l-0.576,2.664h-2.664L114.991,145.395z"/>
</g>
<g>
</g>
</svg>
